<svg viewBox="0 0 24 24" xmlns="http://www.w3.org/2000/svg"><path fill="currentColor" d="M12 8a4 4 0 110 8 4 4 0 010-8m9.4 4.5c0-.5.1-1 .1-1.5s-.1-1-.1-1.5l2.1-1.6c.2-.2.3-.5.2-.7l-2-3.5c-.1-.3-.4-.4-.7-.3l-2.5 1c-.5-.4-1-.7-1.5-1l-.4-2.7A.6.6 0 0014 1h-4c-.3 0-.6.2-.6.5l-.4 2.7c-.6.3-1.1.6-1.6 1l-2.5-1a.6.6 0 00-.7.3l-2 3.5c-.1.3 0 .6.2.7L4.5 9c0 .5-.1 1-.1 1.5s.1 1 .1 1.5L2.4 15c-.2.2-.3.5-.2.7l2 3.5c.1.3.4.4.7.3l2.5-1c.5.4 1 .7 1.6 1l.4 2.7c0 .3.3.5.6.5h4c.3 0 .6-.2.6-.5l.4-2.7c.5-.3 1-.6 1.5-1l2.5 1c.3.1.6 0 .7-.3l2-3.5c.1-.3 0-.6-.2-.7l-2.1-1.6z"/></svg>